<svg id="Layer_1" data-name="Layer 1" xmlns="http://www.w3.org/2000/svg" viewBox="0 0 308.8 46.95"><defs><style>.cls-1{fill:#fff;}</style></defs><title>logo-midata</title><path class="cls-1" d="M33.38,47a8.49,8.49,0,0,1-7.09-3.84,43.66,43.66,0,0,1-3.5-6.32c-2.14-4.47-4.16-9-6.27-13.5a8.91,8.91,0,0,0-1.34-2,2.65,2.65,0,0,0-2.89-.78l-.54.14c-2.27.68-4.07-.95-3.49-3.23a28.93,28.93,0,0,1,3.09-7.84c2.26-3.74,6.76-4,9.16-.36,2.59,3.94,5,8,7.46,12,.82,1.31,1.69,2.6,2.59,3.87,1.22,1.72,2.15,1.64,3.07-.31,1.27-2.73,2.47-5.48,3.69-8.23Q40,10.51,42.7,4.44A7.19,7.19,0,0,1,55.13,2.92a49,49,0,0,1,5.77,10.6,2.59,2.59,0,0,1-.35,3,2.72,2.72,0,0,1-2.88.49c-3.17-.78-4.85.09-6.14,3q-4.34,9.87-8.8,19.68a13.43,13.43,0,0,1-4.8,5.83A7.8,7.8,0,0,1,33.38,47Z"/><path class="cls-1" d="M133.22,14.47c-.73,1.92-1.42,3.67-2.08,5.43-2.24,5.88-4.48,11.75-6.67,17.64a1.32,1.32,0,0,1-1.5,1q-2.06-.07-4.11,0a1.24,1.24,0,0,1-1.42-1q-3.51-9.36-7.07-18.68l-1.68-4.37c-.18.46-.29.71-.37,1-2.26,7.27-4.53,14.54-6.75,21.83a1.43,1.43,0,0,1-1.7,1.23c-1.52-.09-3.05,0-4.58,0-1,0-1.09-.08-.78-1.08L103.36,8.9c.46-1.47,1-2.95,1.37-4.43a1,1,0,0,1,1.07-.82c1.71,0,3.43,0,5.14,0,.88,0,1,.6,1.28,1.22q4.2,11.63,8.42,23.23c.07.21.16.4.3.77.25-.63.45-1.12.63-1.62,2.73-7.5,5.47-15,8.16-22.53a1.33,1.33,0,0,1,1.48-1.07c1.58,0,3.17,0,4.76,0a1.09,1.09,0,0,1,1.22.87Q142.35,21.25,147.53,38c0,.14.05.3.1.56-2.17,0-4.3,0-6.43-.05-.27,0-.63-.53-.75-.89-1.4-4.42-2.76-8.86-4.13-13.3l-2.79-8.95C133.46,15.11,133.37,14.88,133.22,14.47Z"/><path class="cls-1" d="M172.93,21.05V5c0-1.22.11-1.34,1.32-1.34,4,0,8-.12,12,0,4.68.17,9,1.4,12.28,5.07a14.74,14.74,0,0,1,3.43,8,27.48,27.48,0,0,1-.38,10.65c-1.53,6.11-5.62,9.51-11.67,10.7a24.45,24.45,0,0,1-4.44.41c-3.7.06-7.4,0-11.1,0-1.48,0-1.48,0-1.48-1.44Zm6,11.66c3.37-.19,6.67-.19,9.92-.61a7.61,7.61,0,0,0,6.78-6.26,20.35,20.35,0,0,0,0-9.41,7.55,7.55,0,0,0-6-6.12,28.51,28.51,0,0,0-4.6-.58c-2-.1-4,0-6.08,0Z"/><path class="cls-1" d="M230.1,24.69c-1.86-5-3.66-9.88-5.54-15-.57,1.51-1.06,2.81-1.54,4.11q-4.36,11.8-8.7,23.61a1.4,1.4,0,0,1-1.61,1.12c-1.4-.08-2.8,0-4.2,0-1.14,0-1.21-.1-.81-1.17q3.95-10.62,7.91-21.24c1.41-3.8,2.84-7.6,4.21-11.41a1.41,1.41,0,0,1,1.58-1.08c2.14,0,4.29,0,6.44,0a1.26,1.26,0,0,1,1.38.95q6.1,16.5,12.27,33c.3.82,0,1-.73,1-1.56,0-3.12,0-4.67,0a1.09,1.09,0,0,1-1.2-.89c-.74-2.07-1.54-4.11-2.27-6.19a1,1,0,0,0-1.13-.79c-2.33,0-4.67-.06-7,0a2.93,2.93,0,0,1-3.18-2.89,3.14,3.14,0,0,1,3.15-3.14C226.3,24.66,228.13,24.69,230.1,24.69Z"/><path class="cls-1" d="M308.8,38.53c-2.12,0-4.05,0-6,0-.29,0-.68-.49-.81-.84q-1.2-3.07-2.28-6.19a1,1,0,0,0-1.14-.78c-2.3,0-4.61-.07-6.91,0a2.93,2.93,0,0,1-3.24-2.93,3.13,3.13,0,0,1,3.27-3.1c1.77,0,3.55,0,5.49,0-1.82-5-3.62-9.8-5.51-14.94-.37.94-.65,1.61-.9,2.28q-4.68,12.68-9.34,25.37a1.46,1.46,0,0,1-1.69,1.16c-1.36-.08-2.73,0-4.1,0-1.21,0-1.24,0-.8-1.23l3.36-9.06q4.39-11.79,8.76-23.6a1.3,1.3,0,0,1,1.43-1q3.25.06,6.53,0a1.32,1.32,0,0,1,1.43,1q6,16.34,12.12,32.66A9.89,9.89,0,0,1,308.8,38.53Z"/><path class="cls-1" d="M261.27,9.56V37.17c0,1.33,0,1.37-1.36,1.37-1.15,0-2.31,0-3.45,0-.9,0-1.19-.34-1.19-1.21q0-13.26,0-26.5V9.56H245c-1.1,0-1.26-.16-1.27-1.23s0-2.36,0-3.54c0-.88.37-1.15,1.17-1.14,1.59,0,3.17,0,4.76,0h21.83c1.39,0,1.53.14,1.53,1.56,0,1,0,2.05,0,3.07s-.26,1.27-1.28,1.27Z"/><path class="cls-1" d="M161.2,21V37.27c0,1.22,0,1.26-1.26,1.27s-2.37,0-3.55,0c-.89,0-1.22-.34-1.21-1.21,0-3.18,0-6.35,0-9.52V5.14c0-1.32.16-1.48,1.51-1.48,1.12,0,2.24,0,3.36,0,.83,0,1.16.29,1.15,1.15C161.18,10.21,161.2,15.62,161.2,21Z"/><path class="cls-1" d="M63.56,36.14a31.4,31.4,0,0,1,.71-4.25A3.15,3.15,0,0,1,69,29.94a10.55,10.55,0,0,1,5.59,7.61,5.41,5.41,0,0,1-4.45,6.12,5.28,5.28,0,0,1-5.87-3.91C63.91,38.58,63.78,37.34,63.56,36.14Z"/><path class="cls-1" d="M8.59,33.24a4.62,4.62,0,0,1-4.5,4.63A4.27,4.27,0,0,1,0,33.52,4.75,4.75,0,0,1,4.47,28.8,4.32,4.32,0,0,1,8.59,33.24Z"/></svg>