<svg id="Layer_1" data-name="Layer 1" xmlns="http://www.w3.org/2000/svg" viewBox="0 0 1369 840"><defs><style>.cls-1{fill:#fff;}</style></defs><title>logo-mitrends</title><path class="cls-1" d="M191.82,521.13V699.32H147.94V587.71c-1.69,1.78-2.64,2.69-3.49,3.67Q123,616.3,101.5,641.23c-3.27,3.8-7.79,3.84-11,.09q-21.12-24.5-42.22-49A12.77,12.77,0,0,0,44,588.8V699.28H-.16V520.93c1.23-.08,2.54-.24,3.86-.24,10.4,0,20.81.06,31.22-.07a6.75,6.75,0,0,1,5.73,2.7q25.67,29.76,51.45,59.41c1.14,1.31,2.3,2.6,3.81,4.3,1.68-1.88,3.16-3.5,4.6-5.16q25.49-29.4,51-58.78c1-1.09,2.57-2.28,3.89-2.3,11.66-.16,23.32-.07,35,0A7.3,7.3,0,0,1,191.82,521.13Z"/><path class="cls-1" d="M839.88,272.27c1.17-3.89,2.74-7.12,3.06-10.46,1.54-16-2.94-29.94-14-42.07-4.79-5.24-7.82-12.11-11.54-18.3-3.15-5.23-5.55-11-9.35-15.74-6.39-7.91-15.75-8.41-25.1-8-1.37.05-2.74.38-4.11.4-3.12,0-5.44-1.17-5.74-4.59s1.31-5.21,4.61-5.68c.59-.08,1.16-.27,2-.49a26.81,26.81,0,0,0-9.62-12.43c-15.84-11.34-32.74-12.2-50-3.93-8.73,4.17-11.29,11.59-8.21,20.76,2.9,8.64,1.24,12-7.48,15-3.19,1.09-6.45,2-9.61,3.19-7.91,2.94-13.26,8.26-15.37,16.63-.87,3.46-3.44,5.2-6.23,4.63-3.26-.67-4.85-3.74-3.7-7.75a34.85,34.85,0,0,1,10.2-16.8,38.65,38.65,0,0,1,17.87-9.1c3.31-.71,4.48-1.92,3.61-5.68-2.95-12.72,1.44-22.41,12.69-29.38,1-.62,1.95-1.34,3.4-2.34a39,39,0,0,0-3.35-2.55c-14.86-8.91-30.51-9.52-46.63-4.15-1.43.48-2.6,1.76-3.89,2.66,1,1.17,1.93,2.37,3,3.49.51.54,1.2.91,1.76,1.4,2.64,2.3,3.17,5.27,1.39,7.61s-5.2,2.69-8,.42a54.35,54.35,0,0,0-23.94-11.1,45.48,45.48,0,0,0-24.1,1.07c-6.12,2.06-11.54,5.36-14.77,11-5.92,10.26-14.73,15.21-26.29,16.22-5.61.49-9.33,3.78-11.26,9.16-1.07,3-.22,4.68,2.83,5.13,6.8,1,13.61,2,20.44,2.77,5.47.58,10.37-.67,14.18-5.19a4.82,4.82,0,0,1,7.33-.42c2.24,2.32,2.25,5,.26,7.45-6,7.54-14.32,9.25-23.32,8.42-6.59-.6-13.14-1.72-19.7-2.64q-30.39-4.31-38.6,25.72c-1.72,6.29-2.17,12.59.42,18.77a11.79,11.79,0,0,0,2,2.47,13.73,13.73,0,0,0,2.24-2.2c2.06-3.13,3.88-6.44,6-9.52,2-2.91,5.4-3.5,7.8-1.67s2.65,4.84.63,7.71c-5.14,7.35-9.25,15.14-11.18,24-3.19,14.55,2.15,25.43,15.69,31.48,7,3.15,12,8.59,16.11,14.81,4.32,6.46,10.23,9.23,18,8.59,3.68-.31,5.45-2.11,6.5-5.58,1.94-6.42,4-12.83,6.6-19,2.1-5,1.81-7.32-3-10.33-7.93-5-14.5-11.22-17.83-20.19-5.21-14,.61-31.06,14.28-39.17,6.56-3.9,14.22-6,21.43-8.76,3.6-1.41,7.49-2.23,10.87-4a25.87,25.87,0,0,0,7-6c2.4-2.76,4.78-3.71,7.44-2.11s3.33,4.6,1.42,7.85a24.27,24.27,0,0,1-12.88,10.47c-6.2,2.32-12.59,4.15-18.87,6.24-5.75,1.91-11.22,4.3-15.49,8.84-8.65,9.16-8.13,22.52,1.53,30.64,8.45,7.1,18,9.38,28.75,5.71,13.06-4.46,26.14-3.69,39.06.65a8,8,0,0,1,4.41,4,5.33,5.33,0,0,1-1.3,4.94,7.43,7.43,0,0,1-5.76.94c-9.27-2.77-18.58-4.14-28.15-2-15.81,3.52-26.58,15.41-29.3,32-1.62,9.9-.67,19.24,5.51,27.52,4.22,5.68,10.28,8.74,16.73,11a74.87,74.87,0,0,0,39.27,2.4,27,27,0,0,0,3.48-1.35c-1.63-1.51-2.79-2.67-4.05-3.71-13.39-11-17.63-27.17-10.86-42.05.74-1.62,2-3.59,3.45-4.13s4.44-.29,5.37.8a7,7,0,0,1,1.18,5.93c-2.34,6-3.64,11.91-1.73,18.28,4.47,14.95,20.08,21.64,34.77,14.71,7.69-3.64,15.21-7.63,22.91-11.26,15.29-7.22,31.44-11.17,48.33-10.74,8.17.21,16.33,2.11,24.44,3.56,3.7.66,5.28,3.43,4.52,6.54-.71,2.88-3.61,4.18-7.28,3.47-5.27-1-10.54-2.11-15.85-2.81-13.15-1.73-25.8.88-37.75,6s-23.37,11.42-35.15,17c-24.77,11.66-50.5,16.33-77.3,8.46-16-4.69-26.42-15.39-30.06-32-.47-2.15-1.35-2.54-3.26-2.51a76.88,76.88,0,0,1-11.26-.22c-7.65-1-13.5-5.25-17.79-11.48A43,43,0,0,0,539.75,295c-13.49-6.78-19-18.65-18.25-33.48a13.19,13.19,0,0,0-3.12-10c-8.15-9.8-9.72-21.31-6.89-33.32,3.79-16.07,12.9-28.21,27.92-35.75,2.08-1.05,3.87-3.51,4.87-5.73,3.83-8.49,8.65-16,18-19.06a68.5,68.5,0,0,1,12.1-2.46,19.14,19.14,0,0,0,14.51-9.51c7.83-12.75,19.89-18.58,34.3-19,7.64-.2,15.36,1.49,23,2.76,3.27.55,6.14.6,9-1.19,13.16-8.35,27.74-9.49,42.72-8.19a73.36,73.36,0,0,1,33.77,11.54c3,1.91,7,2.75,10.67,2.9,21.57.88,37.54,10.74,48.75,29a11.63,11.63,0,0,0,6.69,4.74c10.64,2.38,18.27,8.43,23.52,17.75q2.67,4.74,4.93,9.7a70.53,70.53,0,0,0,12.76,19.76c9,9.58,13,21.5,14.4,34.38a72.14,72.14,0,0,1-3.16,30,17.47,17.47,0,0,0-.09,9.54c6.27,21.91-9.92,38.05-24.81,42.17-1.32.36-3,1.1-3.57,2.17-9.85,17.49-25.77,26.39-44.33,31.6-2.64.74-5.46.91-8,1.78a4.26,4.26,0,0,0-2.49,2.86,18.74,18.74,0,0,0,3.51,13.11,18.13,18.13,0,0,1,3.1,6.71c1.64,9.82-6.08,16.14-16.15,12.73-4.84-1.64-10-4.26-13.35-7.94-7.23-7.9-16.11-12.54-25.73-16.36a145.88,145.88,0,0,1-14.51-6.12,41.85,41.85,0,0,1-9.23-7c-2.1-2-2.07-4.89,0-7.09s4.84-2.32,6.78-.39c6,5.88,13.69,8.15,21.12,11.07,10.82,4.26,20.93,9.45,28.78,18.48a15.19,15.19,0,0,0,13.16,5.55c-5.85-7.51-8.84-15.24-8-24.06-5-.37-9.52-.64-14-1s-6.72-3.34-5.49-7c1.06-3.17,3.62-3.5,6.4-3.21a86.43,86.43,0,0,0,34.56-3c10.2-3.12,19.69-7.71,27-15.59,3.43-3.68,6-8.24,8.52-12.66,1.36-2.39,2.58-3.9,5.54-4.17,18.82-1.72,28-21.75,17-37a33.32,33.32,0,0,0-3.59-4.35c-2.39-2.39-4.22-5-1.9-8.22S835.89,270,839.88,272.27Z"/><path class="cls-1" d="M1235.84,647c8.39,4.71,16.1,9.39,24.12,13.45,15.27,7.75,31.45,10.76,48.45,7.76,9.8-1.74,15.11-7.7,14.74-16a14.23,14.23,0,0,0-8.09-12.33c-7.42-3.85-15.18-7-22.89-10.3-9.32-4-18.9-7.33-28.07-11.61-13.75-6.41-25-16-29.46-30.91-8.16-27.29,1.69-51.59,31.59-63.22,14.34-5.58,29.37-6.22,44.43-5.07,16.09,1.22,31.47,5.64,46.4,11.71,2.55,1,3.65,2.27,3.6,5.16-.19,10.13-.07,20.26-.07,30.86-5.68-2.27-10.83-4.44-16-6.4-13.52-5.1-27.25-9.65-41.89-9.19a47.34,47.34,0,0,0-16.69,3.6c-10.23,4.37-11.34,14.58-2.56,21.42a54.73,54.73,0,0,0,12.13,6.66c13.57,5.8,27.48,10.84,40.81,17.15,6.65,3.15,12.78,7.89,18.33,12.83,20.86,18.52,20.37,61.35-10.94,78.9-13.65,7.65-28.32,10.37-43.66,10.37-21.71,0-42.06-5.53-61.28-15.51-2.17-1.13-3-2.38-3-4.9C1235.92,670,1235.84,658.66,1235.84,647Z"/><path class="cls-1" d="M845.38,699.54v-4.27q0-67.12-.09-134.25c0-3.67,1-4.71,4.63-4.6,8.14.25,16.29.19,24.44,0a7.48,7.48,0,0,1,6.38,3q35.26,40.57,70.67,81a32.36,32.36,0,0,1,2.22,3.27l1.42-.88v-4.31c0-25.83.07-51.65-.07-77.47,0-3.62,1-4.77,4.63-4.67,9,.23,18,.13,27.08.05,2.41,0,3.57.5,3.57,3.32q-.13,69-.08,138c0,.37-.08.74-.19,1.74H981.6c-5.89,0-11.79-.13-17.67.06a7,7,0,0,1-6.07-2.78q-36.48-42.52-73.08-84.91a10.41,10.41,0,0,0-4-3.07v85.81c0,4.89,0,4.89-4.92,4.89Z"/><path class="cls-1" d="M1050.79,699.54V561.32c0-4.81,0-4.82,5-4.82,19.93,0,39.85-.14,59.78,0,18.94.17,36.82,4.13,52,16.3,15.85,12.71,24,29.38,25.2,49.62.79,14.09-.73,27.79-7.42,40.45-9.94,18.82-26.28,29.19-46.55,33.49a149.2,149.2,0,0,1-27.16,3c-18.79.44-37.59.13-56.39.13Zm35.66-26.19c10.41,0,20.46.62,30.41-.15,16.4-1.27,29.08-8.9,35.85-24.5,3.92-9,4.53-18.55,3.49-28.34-2-19.06-14.41-33.56-33.29-36.46-10.56-1.62-21.45-1-32.18-1.63-3.77-.22-4.57,1.21-4.56,4.71.13,27.44.07,54.89.08,82.33C1086.25,670.55,1086.37,671.79,1086.45,673.35Z"/><path class="cls-1" d="M600,632.42c17.2,12.54,21.45,32.78,30.5,50.11,2.78,5.3,5.08,10.85,7.77,16.63a21.74,21.74,0,0,1-2.66.36c-11,0-22.07,0-33.1.07-2.23,0-3.29-.75-4.2-2.74q-8.77-19.3-17.83-38.49a46.27,46.27,0,0,0-4.12-6.71C569.49,642,562,639.93,548.61,642v57.28h-35c-.07-1.39-.2-2.73-.2-4.06,0-44.64,0-89.28-.1-133.92,0-3.8,1-4.92,4.81-4.89,19.94.18,39.88,0,59.81.1,14.6.06,27.26,4.71,37,16.06,12.94,15,13.51,42.54-8.3,55.94C604.49,629.81,602.32,631.05,600,632.42Zm-39.29-50.33,0,.26a89,89,0,0,0-9.39.13c-1,.1-2.56,1.62-2.58,2.51q-.29,13.92,0,27.83c0,.89,1.43,2.52,2.2,2.52,7.63,0,15.33.24,22.88-.65,8.71-1,13.77-7.57,13.68-16.09-.1-8.83-5-14.41-14-15.62C569.2,582.42,564.93,582.37,560.69,582.09Z"/><path class="cls-1" d="M784.09,638.65h-4.82c-18.68,0-37.36.07-56-.06-3.31,0-4.65.69-4.56,4.32.24,10,.08,20,.08,30.48H788.4v25.94H683.73c-.06-1.25-.18-2.57-.18-3.89,0-44.89,0-89.77-.1-134.66,0-3.66,1.26-4.35,4.53-4.34q47.38.13,94.78,0c3.3,0,4.7.74,4.54,4.38-.28,7-.08,14-.08,21.3-1.88.09-3.34.21-4.8.21-19.69,0-39.37.09-59.06-.07-3.58,0-4.82,1-4.69,4.64.27,7.26.24,14.54,0,21.81-.11,3.31.93,4.3,4.23,4.28,18.81-.13,37.61,0,56.42-.13,3.68,0,5.07.81,4.86,4.78C783.83,624.49,784.09,631.36,784.09,638.65Z"/><path class="cls-1" d="M336,582.34c0-8.18-.07-15.81.09-23.43,0-.8,1.19-1.9,2.08-2.28s2.21-.13,3.34-.13H469.77c7.05,0,5.69,0,5.74,5.56.07,6.52,0,13,0,20-1.58.09-3,.24-4.46.24-13.92,0-27.84,0-41.76,0-6.27,0-6-1-6,6.15q0,52.66,0,105.34c0,7-.06,5.64-5.61,5.68-8.41.07-16.81-.17-25.21.11-3.56.12-4.41-1.07-4.41-4.43q.15-52.66.06-105.34a36.26,36.26,0,0,1,0-3.76c.31-3-1-3.84-3.88-3.82-14.42.13-28.84.06-43.26.06Z"/><path class="cls-1" d="M294.78,699.54H262.89c-.85,0-1.7-.08-2.88-.15-.08-1.5-.21-2.83-.21-4.17,0-44.63,0-89.27-.09-133.9,0-3.77,1-5,4.8-4.9,9,.27,18.05.15,27.07.05,2.55,0,3.48.78,3.47,3.46q-.1,68.64-.06,137.28C295,697.81,294.88,698.42,294.78,699.54Z"/><path class="cls-1" d="M752,204c-1,12.4,9.4,25,22,27.13,9.9,1.66,18.06-.71,23.88-9.42,2-3,4.91-3.51,7.45-1.82s3,4.87,1,8c-5.94,9.07-14.57,13.57-25.19,14.11-12.24.62-23.71-1.67-33.05-10.44-1.88-1.76-3.46-1.67-4.9.57a49.3,49.3,0,0,1-23.71,19.47c-3,1.23-2.6,3.24-2.06,5.49a51,51,0,0,1-.17,24.17,36.88,36.88,0,0,1-29.23,27c-4,.63-6.74-.84-7.32-4S682,299,686.08,298c16.15-3.93,25.1-18,21-33-1.54-5.66-5.38-8.59-11.21-8.54-.62,0-1.25,0-1.87,0-4.2,0-6.56-1.76-6.62-4.95s2.42-5,6.37-5.4c5-.45,10-.74,14.85-1.91,20.2-4.9,31.8-19.74,33.19-42a21.52,21.52,0,0,1,.43-4.1c.68-2.66,2.8-4.35,5.24-3.69,1.77.48,3.57,2.46,4.42,4.23C752.62,200.26,752,202.41,752,204Z"/><path class="cls-1" d="M959.54,824V777.59h7.85v61c-4.3.6-7.63.42-10.89-3.53C945,821.11,933,807.65,921.14,794a22.17,22.17,0,0,1-1.64-2.48l-1.23.62v46.36c-1.18.14-1.78.25-2.38.28-5.52.23-5.52.22-5.53-5.42,0-16.93,0-33.86.07-50.79,0-1.75.63-4.74,1.57-5,2.47-.69,5.15-.84,7.41,1.83,11.85,14,23.93,27.7,35.93,41.52,1,1.2,2.13,2.35,3.2,3.53Z"/><path class="cls-1" d="M631.21,824.14c0-1.45,0-2.91,0-4.37,0-12.79.06-25.58-.05-38.37,0-2.93.61-4.24,3.93-4.26s4.28,1.05,4.26,4.31c-.13,17.43,0,34.86-.13,52.3,0,1.65-.66,4.62-1.37,4.73-2.65.43-5.51,1.19-7.89-1.62-8.91-10.52-18-20.87-27.07-31.28a136.87,136.87,0,0,0-12.77-13.39v46.3h-7.87V777.61c4-.8,7.08-.47,10,3,11.62,13.81,23.59,27.33,35.43,41,.81.93,1.66,1.82,2.5,2.72Z"/><path class="cls-1" d="M452.91,838.8l39.47-54H456a10.66,10.66,0,0,1-.53-1.84c-.41-6-.41-6,5.69-6h47.12l-39.56,54.18c2.08.13,3.36.28,4.63.28,10.4,0,20.8.12,31.2,0,3,0,3.83,1.08,3.85,3.92s-1,3.58-3.76,3.57C487.76,838.75,470.86,838.8,452.91,838.8Z"/><path class="cls-1" d="M1065.24,838.58v-61h34.61v6.92H1074v19.55h18.85c6.88,0,6.88,0,6.2,7.54h-25.31c0,6.18-.12,11.91.13,17.62,0,.78,1.88,2.09,2.92,2.12,6.5.2,13,.1,19.54.1h4.29v7.15Z"/><path class="cls-1" d="M1043,790.05c-3.19-1.3-5.76-2.55-8.45-3.42-9.4-3-18.69-3.7-27.36,2.2s-12.14,16.26-9.12,26.53a23,23,0,0,0,22.06,16.18A50.15,50.15,0,0,0,1032,830.2c3.83-1,7.43-2.83,11.12-4.3,2.19,6.49,1.16,8.91-5.17,11.05a46.6,46.6,0,0,1-26.63,1.44c-13.72-3.43-23-15.77-23-30.17a31.28,31.28,0,0,1,23.58-30.67c10.08-2.55,19.89-.91,29.36,3a3.13,3.13,0,0,1,1.72,2.06C1043.16,785,1043,787.29,1043,790.05Z"/><path class="cls-1" d="M799.67,825.65c1.9,7.61,1.17,9.16-5.6,11.39a46.88,46.88,0,0,1-26.28,1.37,30.93,30.93,0,0,1-23.24-30.48c.1-14.32,10.11-27.2,23.94-30.46,10-2.35,19.65-.83,29,3.07a3.59,3.59,0,0,1,1.91,2.37,58.86,58.86,0,0,1,.09,7.12c-3.45-1.37-6.25-2.73-9.19-3.62-9.46-2.87-18.76-3.34-27.29,2.81-8.3,6-11.56,16.42-8.39,26.42a23.18,23.18,0,0,0,21.84,16C785.41,831.75,786.72,831.42,799.67,825.65Z"/><path class="cls-1" d="M889.21,777.54v6.92H863.4v19.59h11c3.13,0,6.26,0,9.4,0,4.36,0,4.66.47,4.57,4.72,0,2.35-1,3-3.21,2.91-6-.11-12-.05-18,0-1.22,0-2.44.11-4.07.19,0,5.94-.11,11.67.14,17.39,0,.77,1.89,2.06,2.94,2.09,6.51.2,13,.1,19.54.1h4.24v7.37H854.66V777.54Z"/><path class="cls-1" d="M308.37,790.06c-7.42-3.78-14.83-6-23-5.54-12.44.69-22.64,11.21-22.6,23.7a23.57,23.57,0,0,0,23.09,23.45c8.29.29,15.77-2,22.85-6.07,2.49,6.08,1.32,9.09-4.31,11.08-9.32,3.3-18.84,4.08-28.42,1.38-13.66-3.85-23-18-22-31.81a32,32,0,0,1,28.53-29.61,48.68,48.68,0,0,1,20,2.25C309.6,781.27,310,781.88,308.37,790.06Z"/><path class="cls-1" d="M526.47,838.8V777.66a20.54,20.54,0,0,1,2.87-.38c9.4,0,18.8.08,28.19-.08,3-.05,3.52,1.24,3.56,3.82,0,2.73-.8,3.74-3.66,3.67-7.37-.19-14.75-.06-22.43-.06v19.42h18.9c6.71,0,6.82.14,5.64,7.51H534.77c0,6.21-.11,12,.15,17.86,0,.72,2,1.89,3.14,1.92,6.64.18,13.29.23,19.92,0,3-.09,3.86,1,3.87,3.9s-1,3.63-3.74,3.59C547.72,838.72,537.32,838.8,526.47,838.8Z"/><path class="cls-1" d="M693.66,825.35c4.77,2.29,9,4.92,13.62,6.38,5,1.59,10.13-.87,12-4.69s.36-8.32-4.26-11.73c-4.12-3-8.64-5.52-12.88-8.41-4.82-3.29-8.59-7.32-8.76-13.65-.23-8.22,4.91-15.33,13-16.32,4.69-.57,9.63.45,14.39,1.18,3.76.57,5.5,3,4.84,7a23.16,23.16,0,0,0,0,3.9c-3.77-1.63-7.25-3.17-10.76-4.62a7.91,7.91,0,0,0-2.57-.48c-4.91-.32-9.6,2.06-10.7,5.39s.42,6.94,4.91,10.06c4,2.78,8.34,5.08,12.38,7.81,5.47,3.68,9,8.56,9.18,15.49.19,8.93-5.81,16.24-14.84,16.63-4.84.21-9.83-1.15-14.63-2.32-3.67-.9-5.56-3.54-4.87-7.63A22.41,22.41,0,0,0,693.66,825.35Z"/><path class="cls-1" d="M378.72,838.3V784.79H357.89c-.1-1.92-.53-3.57-.15-5,.28-1.07,1.6-2.66,2.47-2.67,15.29-.17,30.58-.1,45.87-.14,3.39,0,2.82,2.35,3,4.43.16,2.42-.8,3.28-3.28,3.22-6-.16-12,0-18.55,0v47.59C387.22,839.69,387.16,839.74,378.72,838.3Z"/><path class="cls-1" d="M771.81,276.44c-9,.21-15.27,2.94-19.86,9.18-2.16,2.93-5.33,3.59-7.78,1.87s-2.76-5-.6-8c6.84-9.51,16.39-13.65,27.87-13.38,10.67.25,20.14,3.7,27.43,11.83a29.37,29.37,0,0,1,4,6.28c1.43,2.81.43,5.23-2.2,6.67-2.86,1.58-5.48.76-7-2.09C788.62,279.48,780,277.1,771.81,276.44Z"/><path class="cls-1" d="M339.33,777.58v60.93h-7.74V777.58Z"/><path class="cls-1" d="M427.05,838.48V777.61h7.68v60.87Z"/><path class="cls-1" d="M822.23,777.49h7.52V838.6h-7.52Z"/><path class="cls-1" d="M676.9,75.68c.86-3.41,2.25-5.25,4.67-4.65a5.92,5.92,0,0,1,3.73,3.67,3.25,3.25,0,0,1-3.75,4C679.89,78.41,678.44,76.72,676.9,75.68Z"/><path class="cls-1" d="M619.19,64.33c-1.51,1.06-2.93,2.75-4.57,3a3.18,3.18,0,0,1-3.82-3.84,6,6,0,0,1,3.63-3.77C616.85,59.11,618.23,61,619.19,64.33Z"/><path class="cls-1" d="M908.94,285.64c-.79,3.49-2.27,5.21-4.68,4.61a5.94,5.94,0,0,1-3.74-3.64,3.37,3.37,0,0,1,3.8-4C906,282.79,907.4,284.57,908.94,285.64Z"/><path class="cls-1" d="M676.9,4.17c.87-3.41,2.27-5.23,4.69-4.63a5.93,5.93,0,0,1,3.71,3.68,3.26,3.26,0,0,1-3.77,3.94C679.88,6.93,678.43,5.22,676.9,4.17Z"/><path class="cls-1" d="M796.87,106.38c1,1.57,2.62,3.07,2.81,4.74a3.2,3.2,0,0,1-4,3.61c-1.48-.38-3.45-2.43-3.49-3.78,0-1.51,1.84-3.08,2.89-4.62Z"/><path class="cls-1" d="M682.36,55.48c-3.46-.79-5.26-2.21-4.66-4.63a5.91,5.91,0,0,1,3.68-3.76,3.29,3.29,0,0,1,4,3.79C685.08,52.52,683.4,54,682.36,55.48Z"/><path class="cls-1" d="M761.54,456.16c-.09,2.6-1.29,4.09-3.88,4.13s-4.32-1.58-3.89-3.89a5.93,5.93,0,0,1,3.62-3.82C759.71,452,761.26,453.73,761.54,456.16Z"/><path class="cls-1" d="M676.9,465.87c1.51-1,2.91-2.62,4.55-2.94,2.44-.48,4,1.27,4,3.74s-1.54,4.26-3.87,3.95c-1.65-.22-3.09-1.91-4.63-2.94Z"/><path class="cls-1" d="M605.48,36.26c3.4.86,5.24,2.23,4.61,4.66a5.89,5.89,0,0,1-3.72,3.71,3.27,3.27,0,0,1-3.91-3.8C602.74,39.18,604.42,37.78,605.48,36.26Z"/><path class="cls-1" d="M837,56.38c3.74.26,5.51,1.65,4.91,4.08-.37,1.53-2.59,3.92-3.45,3.71-1.65-.4-3.82-2.21-4.08-3.73C834.19,59.13,836.31,57.41,837,56.38Z"/><path class="cls-1" d="M602.64,477.2c-1.5,1.11-3,3.11-4.5,3.08s-3.51-2-3.91-3.48c-.6-2.24,1-4,3.56-4.2S601.71,473.81,602.64,477.2Z"/><path class="cls-1" d="M893.73,373.65c-3.41-.69-5.21-2-4.68-4.48.34-1.53,2.48-3.95,3.39-3.77,1.63.31,3.83,2.11,4.11,3.6C896.8,370.33,894.76,372.08,893.73,373.65Z"/><path class="cls-1" d="M627.46,85.49c-.89,3.38-2.26,5.18-4.7,4.53a5.92,5.92,0,0,1-3.68-3.63,3.35,3.35,0,0,1,3.79-4C624.5,82.61,625.94,84.41,627.46,85.49Z"/><path class="cls-1" d="M438.65,199.7c1,1.59,2.65,3.14,2.74,4.78.14,2.3-1.68,3.88-4.22,3.65s-3.95-2-3.36-4.37c.39-1.55,2-2.78,3.09-4.16Z"/><path class="cls-1" d="M550.8,407.63c-.92,3.42-2.39,5.14-4.81,4.44a5.9,5.9,0,0,1-3.63-3.75,3.37,3.37,0,0,1,3.93-3.86C547.92,404.72,549.31,406.52,550.8,407.63Z"/><path class="cls-1" d="M520.14,59.54c1.51-1,2.92-2.5,4.58-2.87,2.34-.51,3.66,1.2,3.77,3.51.13,2.5-1.3,4.37-3.67,4.1-1.64-.19-3.11-1.92-4.66-3C520.16,60.73,520.15,60.13,520.14,59.54Z"/><path class="cls-1" d="M741.08,83.1c.8,1.64,2.45,3.46,2.16,4.89s-2.92,3.52-3.87,3.22c-1.55-.48-3.47-2.64-3.54-4.15-.05-1.34,2.22-2.78,3.47-4.17Z"/><path class="cls-1" d="M888.25,124.43c1.53-1,3-2.72,4.59-3a3.33,3.33,0,0,1,3.78,4c-.25,1.44-2.23,3.28-3.76,3.66C890.46,129.65,889.05,127.86,888.25,124.43Z"/><path class="cls-1" d="M816.16,90.1c-1-1.51-2.73-2.92-3-4.54a3.13,3.13,0,0,1,4-3.61,5.9,5.9,0,0,1,3.62,3.63C821.38,88,819.64,89.41,816.16,90.1Z"/><path class="cls-1" d="M606.41,456.56a3.52,3.52,0,0,1-3.55-4.13c.15-2.49,1.77-4.25,4.11-3.61a5.85,5.85,0,0,1,3.45,3.88C610.86,455,609.21,456.58,606.41,456.56Z"/><path class="cls-1" d="M682.26,437.81c1.07,1.5,2.81,2.9,3,4.52.37,2.38-1.36,3.82-3.94,3.79-2.4,0-4-1.37-3.69-3.62.27-1.66,1.82-3.11,2.8-4.65Z"/><path class="cls-1" d="M752.53,65.07c-1.48,1.07-2.84,2.7-4.48,3.06-2.27.49-3.72-1.18-3.83-3.51s1-4.14,3.61-4.27S751.73,61.63,752.53,65.07Z"/><path class="cls-1" d="M869.75,143.5c-3.5-.64-4.85-1.92-4.84-4.51,0-2.41,1.38-3.66,3.7-3.75,2.5-.1,4.36,1.26,4,3.7C872.44,140.56,870.77,142,869.75,143.5Z"/><path class="cls-1" d="M619.81,430.13c-1.62.85-3.18,2.21-4.87,2.42-2.33.28-3.61-1.48-3.54-3.8.07-2.58,1.78-4.11,4.12-3.61,1.63.34,3,2,4.44,3.11Z"/><path class="cls-1" d="M844,148.4c3.46.75,5.21,2.2,4.66,4.59a5.82,5.82,0,0,1-3.62,3.74,3.27,3.27,0,0,1-4-3.72C841.27,151.37,842.93,149.93,844,148.4Z"/><path class="cls-1" d="M822.66,421.25c-1-1.57-2.58-3.07-2.75-4.72a3.14,3.14,0,0,1,4.13-3.44c1.46.41,3.4,2.45,3.41,3.77s-1.91,3-3,4.45Z"/><path class="cls-1" d="M925.89,200.24c2.5.22,4.2,1.67,3.56,4.06a5.89,5.89,0,0,1-3.63,3.69c-2.33.48-3.83-1.26-3.85-3.83S923.34,200.34,925.89,200.24Z"/><path class="cls-1" d="M563.3,381.79c1.52-1.05,2.94-2.74,4.58-3a3.21,3.21,0,0,1,3.76,3.88c-.32,1.48-2.29,3.49-3.67,3.62s-3.08-1.71-4.64-2.68Z"/><path class="cls-1" d="M474.74,368.48c-.92,3.44-2.53,5-4.82,4.43-1.48-.41-3.7-2.74-3.47-3.71.37-1.57,2.37-3.63,3.88-3.81C471.66,365.23,473.26,367.36,474.74,368.48Z"/><path class="cls-1" d="M760.91,42.27c-1.57.91-3.06,2.37-4.72,2.61-2.35.34-3.49-1.44-3.52-3.78,0-2.62,1.59-4.25,3.88-3.87,1.61.27,3,2.12,4.44,3.26Z"/><path class="cls-1" d="M492.48,360.28c-1-1.52-2.88-3.09-2.8-4.54s2.09-3.28,3.57-3.65a3.13,3.13,0,0,1,4,3.6c-.22,1.63-1.9,3.06-2.93,4.58Z"/><path class="cls-1" d="M764.28,22.48c-1.09-1.37-2.8-2.61-3.14-4.16-.54-2.41,1-4,3.62-4.14s4.28,1.47,4,3.85C768.6,19.59,767,21,766,22.44Z"/><path class="cls-1" d="M465,287.15c-1.52,1-3,2.68-4.58,2.88a3.11,3.11,0,0,1-3.55-4,5.91,5.91,0,0,1,3.66-3.58C463,281.87,464.32,283.7,465,287.15Z"/><path class="cls-1" d="M891.6,284.29c-1.39,1-2.65,2.57-4.19,2.92a3.23,3.23,0,0,1-4.11-3.52,5.85,5.85,0,0,1,3.72-4.05c1.28-.25,3,1.82,4.55,2.86Z"/><path class="cls-1" d="M597.19,22.45c-1.05-1.42-2.74-2.74-3-4.29-.41-2.42,1.34-4,3.85-4s4.31,1.47,3.8,4c-.31,1.56-1.92,2.86-2.94,4.27Z"/><path class="cls-1" d="M682.31,22.69c1.05,1.48,2.75,2.87,3,4.48a3.13,3.13,0,0,1-3.92,3.64,5.82,5.82,0,0,1-3.69-3.57C677.08,24.81,678.91,23.47,682.31,22.69Z"/><path class="cls-1" d="M474.13,125c-.16,2.87-1.75,4.52-4.05,4a5.79,5.79,0,0,1-3.71-3.68c-.42-2.22,1.27-4,3.82-4S473.94,122.86,474.13,125Z"/><path class="cls-1" d="M494.86,143.54c-3.35-.74-4.61-2.09-4.63-4.44,0-2.64,1.68-4.25,4-3.71,1.5.35,3.57,2.34,3.62,3.66S496,142,494.86,143.54Z"/><path class="cls-1" d="M761,476.29c.13-2.51,1.65-4.17,4-3.55,1.51.4,3.83,2.68,3.61,3.62a6.11,6.11,0,0,1-3.84,4C762.62,480.77,761,479,761,476.29Z"/><path class="cls-1" d="M463.68,208.81c-1.53,1.05-3.09,3-4.57,2.91-1.31-.06-3.28-2.15-3.61-3.65a3.15,3.15,0,0,1,3.78-3.85c1.57.23,2.93,1.85,4.38,2.84C463.67,207.65,463.67,208.23,463.68,208.81Z"/><path class="cls-1" d="M890.93,210.25c-.74,3.48-2.28,5.14-4.61,4.58a5.86,5.86,0,0,1-3.55-3.72,3.12,3.12,0,0,1,3.67-3.88C888.05,207.49,889.44,209.19,890.93,210.25Z"/><path class="cls-1" d="M682.63,413.38c1,1.59,2.75,3.27,2.59,4.74s-2.6,3.67-3.64,3.47a5.66,5.66,0,0,1-3.76-3.83c-.17-1.34,1.89-3,3-4.45Z"/><path class="cls-1" d="M480,286.62c-2.72-.07-4-1.69-4-4.09s1.58-3.65,4-3.58,3.81,1.21,3.84,3.68S482.5,286.54,480,286.62Z"/><path class="cls-1" d="M926.2,290.57c-1.45,1-2.79,2.45-4.37,2.76a3.21,3.21,0,0,1-3.94-3.73,5.74,5.74,0,0,1,3.68-3.68C923.94,285.36,925.45,287.08,926.2,290.57Z"/><path class="cls-1" d="M512.6,343.73c.16-3.9,1.74-5.52,4.1-5,1.52.37,3.49,2.19,3.75,3.63.44,2.4-1.59,4.09-4,3.71C514.89,345.86,513.52,344.34,512.6,343.73Z"/><path class="cls-1" d="M808.46,403.91c-1-1.4-2.61-2.68-2.94-4.23-.54-2.51,1.15-4,3.68-4.08s4.25,1.59,3.95,3.91c-.2,1.56-1.95,2.92-3,4.36Z"/><path class="cls-1" d="M619.62,404.08c1.44-1,2.78-2.51,4.33-2.77a3.15,3.15,0,0,1,3.73,3.89c-.29,1.47-2.29,3.55-3.61,3.61s-3-1.87-4.49-2.93C619.59,405.28,619.6,404.68,619.62,404.08Z"/><path class="cls-1" d="M681.63,495c-2.56-.11-4-1.34-4.06-3.93s1.44-3.66,3.77-3.71,4,1.08,4.07,3.46S684.19,494.82,681.63,495Z"/><path class="cls-1" d="M870.94,351.63c1,1.43,2.55,2.75,2.87,4.32.51,2.5-1.27,4.09-3.7,4.11s-4.26-1.54-3.8-4.05c.29-1.58,1.84-2.93,2.82-4.38Z"/><path class="cls-1" d="M440.43,294c-1-1.39-2.58-2.67-2.89-4.2-.47-2.42,1.1-4,3.66-4.05s4.19,1.66,3.91,4c-.19,1.52-1.93,2.85-3,4.26Z"/><path class="cls-1" d="M842.74,433.22c-.77,3.53-2.36,5.13-4.7,4.5-1.51-.41-3.44-2.31-3.65-3.76a3.25,3.25,0,0,1,4.08-3.57C840,430.68,841.32,432.23,842.74,433.22Z"/><path class="cls-1" d="M566.27,104.21c-.38,3.83-1.93,4.93-4.4,4.78s-3.49-1.69-3.39-4,1.61-4,3.82-3.5C563.93,101.85,565.29,103.5,566.27,104.21Z"/><path class="cls-1" d="M520.27,433.29c1.41-1,2.7-2.61,4.24-2.9,2.5-.46,4,1.26,4,3.8,0,2.32-1.31,3.79-3.77,3.73S521,436.67,520.27,433.29Z"/><path class="cls-1" d="M905.28,212.09c-1-1.42-2.63-2.72-2.92-4.27-.44-2.42,1.14-4,3.73-4.07a3.5,3.5,0,0,1,3.91,3.64C910.11,209.92,908.76,211.33,905.28,212.09Z"/><path class="cls-1" d="M754.72,435.47c-.56,3.44-1.94,4.58-4.31,4.66a3.4,3.4,0,0,1-3.9-3.59c-.09-2.54,1.4-4.31,3.89-3.92C752,432.86,753.29,434.47,754.72,435.47Z"/><path class="cls-1" d="M543.23,79c3,.08,4.14,1.6,4.1,3.88,0,2.57-1.63,3.89-4.14,3.76-2.35-.13-3.61-1.56-3.54-3.95C539.72,80.05,541.17,78.87,543.23,79Z"/></svg>